<?xml version="1.0" encoding="utf-8"?>
<svg version="1.1" baseProfile="full"  width="132" height="132" viewBox="0 0 132 132"
		 xmlns="http://www.w3.org/2000/svg" xmlns:xlink="http://www.w3.org/1999/xlink" xmlns:ev="http://www.w3.org/2001/xml-events">
<desc></desc>
<rect width="132" height="132" fill="transparent" cx="0" cy="0" />
<defs>
<rect id="p" width="4" height="4" />
</defs>
<g fill="#000000">
<use x="8" y="8" xlink:href="#p" />
<use x="8" y="12" xlink:href="#p" />
<use x="8" y="16" xlink:href="#p" />
<use x="8" y="20" xlink:href="#p" />
<use x="8" y="24" xlink:href="#p" />
<use x="8" y="28" xlink:href="#p" />
<use x="8" y="32" xlink:href="#p" />
<use x="8" y="40" xlink:href="#p" />
<use x="8" y="48" xlink:href="#p" />
<use x="8" y="52" xlink:href="#p" />
<use x="8" y="60" xlink:href="#p" />
<use x="8" y="72" xlink:href="#p" />
<use x="8" y="76" xlink:href="#p" />
<use x="8" y="84" xlink:href="#p" />
<use x="8" y="96" xlink:href="#p" />
<use x="8" y="100" xlink:href="#p" />
<use x="8" y="104" xlink:href="#p" />
<use x="8" y="108" xlink:href="#p" />
<use x="8" y="112" xlink:href="#p" />
<use x="8" y="116" xlink:href="#p" />
<use x="8" y="120" xlink:href="#p" />
<use x="12" y="8" xlink:href="#p" />
<use x="12" y="32" xlink:href="#p" />
<use x="12" y="40" xlink:href="#p" />
<use x="12" y="56" xlink:href="#p" />
<use x="12" y="68" xlink:href="#p" />
<use x="12" y="72" xlink:href="#p" />
<use x="12" y="80" xlink:href="#p" />
<use x="12" y="84" xlink:href="#p" />
<use x="12" y="88" xlink:href="#p" />
<use x="12" y="96" xlink:href="#p" />
<use x="12" y="120" xlink:href="#p" />
<use x="16" y="8" xlink:href="#p" />
<use x="16" y="16" xlink:href="#p" />
<use x="16" y="20" xlink:href="#p" />
<use x="16" y="24" xlink:href="#p" />
<use x="16" y="32" xlink:href="#p" />
<use x="16" y="44" xlink:href="#p" />
<use x="16" y="52" xlink:href="#p" />
<use x="16" y="56" xlink:href="#p" />
<use x="16" y="60" xlink:href="#p" />
<use x="16" y="76" xlink:href="#p" />
<use x="16" y="96" xlink:href="#p" />
<use x="16" y="104" xlink:href="#p" />
<use x="16" y="108" xlink:href="#p" />
<use x="16" y="112" xlink:href="#p" />
<use x="16" y="120" xlink:href="#p" />
<use x="20" y="8" xlink:href="#p" />
<use x="20" y="16" xlink:href="#p" />
<use x="20" y="20" xlink:href="#p" />
<use x="20" y="24" xlink:href="#p" />
<use x="20" y="32" xlink:href="#p" />
<use x="20" y="40" xlink:href="#p" />
<use x="20" y="48" xlink:href="#p" />
<use x="20" y="52" xlink:href="#p" />
<use x="20" y="64" xlink:href="#p" />
<use x="20" y="68" xlink:href="#p" />
<use x="20" y="80" xlink:href="#p" />
<use x="20" y="84" xlink:href="#p" />
<use x="20" y="96" xlink:href="#p" />
<use x="20" y="104" xlink:href="#p" />
<use x="20" y="108" xlink:href="#p" />
<use x="20" y="112" xlink:href="#p" />
<use x="20" y="120" xlink:href="#p" />
<use x="24" y="8" xlink:href="#p" />
<use x="24" y="16" xlink:href="#p" />
<use x="24" y="20" xlink:href="#p" />
<use x="24" y="24" xlink:href="#p" />
<use x="24" y="32" xlink:href="#p" />
<use x="24" y="44" xlink:href="#p" />
<use x="24" y="48" xlink:href="#p" />
<use x="24" y="52" xlink:href="#p" />
<use x="24" y="60" xlink:href="#p" />
<use x="24" y="80" xlink:href="#p" />
<use x="24" y="84" xlink:href="#p" />
<use x="24" y="88" xlink:href="#p" />
<use x="24" y="96" xlink:href="#p" />
<use x="24" y="104" xlink:href="#p" />
<use x="24" y="108" xlink:href="#p" />
<use x="24" y="112" xlink:href="#p" />
<use x="24" y="120" xlink:href="#p" />
<use x="28" y="8" xlink:href="#p" />
<use x="28" y="32" xlink:href="#p" />
<use x="28" y="44" xlink:href="#p" />
<use x="28" y="52" xlink:href="#p" />
<use x="28" y="56" xlink:href="#p" />
<use x="28" y="64" xlink:href="#p" />
<use x="28" y="68" xlink:href="#p" />
<use x="28" y="72" xlink:href="#p" />
<use x="28" y="80" xlink:href="#p" />
<use x="28" y="84" xlink:href="#p" />
<use x="28" y="96" xlink:href="#p" />
<use x="28" y="120" xlink:href="#p" />
<use x="32" y="8" xlink:href="#p" />
<use x="32" y="12" xlink:href="#p" />
<use x="32" y="16" xlink:href="#p" />
<use x="32" y="20" xlink:href="#p" />
<use x="32" y="24" xlink:href="#p" />
<use x="32" y="28" xlink:href="#p" />
<use x="32" y="32" xlink:href="#p" />
<use x="32" y="40" xlink:href="#p" />
<use x="32" y="48" xlink:href="#p" />
<use x="32" y="56" xlink:href="#p" />
<use x="32" y="64" xlink:href="#p" />
<use x="32" y="72" xlink:href="#p" />
<use x="32" y="80" xlink:href="#p" />
<use x="32" y="88" xlink:href="#p" />
<use x="32" y="96" xlink:href="#p" />
<use x="32" y="100" xlink:href="#p" />
<use x="32" y="104" xlink:href="#p" />
<use x="32" y="108" xlink:href="#p" />
<use x="32" y="112" xlink:href="#p" />
<use x="32" y="116" xlink:href="#p" />
<use x="32" y="120" xlink:href="#p" />
<use x="36" y="40" xlink:href="#p" />
<use x="36" y="44" xlink:href="#p" />
<use x="36" y="52" xlink:href="#p" />
<use x="36" y="68" xlink:href="#p" />
<use x="36" y="72" xlink:href="#p" />
<use x="36" y="84" xlink:href="#p" />
<use x="40" y="12" xlink:href="#p" />
<use x="40" y="16" xlink:href="#p" />
<use x="40" y="24" xlink:href="#p" />
<use x="40" y="28" xlink:href="#p" />
<use x="40" y="32" xlink:href="#p" />
<use x="40" y="36" xlink:href="#p" />
<use x="40" y="44" xlink:href="#p" />
<use x="40" y="52" xlink:href="#p" />
<use x="40" y="60" xlink:href="#p" />
<use x="40" y="64" xlink:href="#p" />
<use x="40" y="68" xlink:href="#p" />
<use x="40" y="72" xlink:href="#p" />
<use x="40" y="76" xlink:href="#p" />
<use x="40" y="84" xlink:href="#p" />
<use x="40" y="88" xlink:href="#p" />
<use x="40" y="92" xlink:href="#p" />
<use x="40" y="96" xlink:href="#p" />
<use x="40" y="108" xlink:href="#p" />
<use x="40" y="116" xlink:href="#p" />
<use x="40" y="120" xlink:href="#p" />
<use x="44" y="8" xlink:href="#p" />
<use x="44" y="16" xlink:href="#p" />
<use x="44" y="20" xlink:href="#p" />
<use x="44" y="28" xlink:href="#p" />
<use x="44" y="36" xlink:href="#p" />
<use x="44" y="48" xlink:href="#p" />
<use x="44" y="64" xlink:href="#p" />
<use x="44" y="68" xlink:href="#p" />
<use x="44" y="96" xlink:href="#p" />
<use x="44" y="104" xlink:href="#p" />
<use x="44" y="112" xlink:href="#p" />
<use x="44" y="120" xlink:href="#p" />
<use x="48" y="8" xlink:href="#p" />
<use x="48" y="16" xlink:href="#p" />
<use x="48" y="20" xlink:href="#p" />
<use x="48" y="32" xlink:href="#p" />
<use x="48" y="40" xlink:href="#p" />
<use x="48" y="44" xlink:href="#p" />
<use x="48" y="48" xlink:href="#p" />
<use x="48" y="60" xlink:href="#p" />
<use x="48" y="64" xlink:href="#p" />
<use x="48" y="68" xlink:href="#p" />
<use x="48" y="72" xlink:href="#p" />
<use x="48" y="88" xlink:href="#p" />
<use x="48" y="96" xlink:href="#p" />
<use x="48" y="100" xlink:href="#p" />
<use x="48" y="112" xlink:href="#p" />
<use x="52" y="12" xlink:href="#p" />
<use x="52" y="24" xlink:href="#p" />
<use x="52" y="36" xlink:href="#p" />
<use x="52" y="40" xlink:href="#p" />
<use x="52" y="64" xlink:href="#p" />
<use x="52" y="72" xlink:href="#p" />
<use x="52" y="76" xlink:href="#p" />
<use x="52" y="84" xlink:href="#p" />
<use x="52" y="88" xlink:href="#p" />
<use x="52" y="100" xlink:href="#p" />
<use x="52" y="112" xlink:href="#p" />
<use x="52" y="116" xlink:href="#p" />
<use x="56" y="8" xlink:href="#p" />
<use x="56" y="12" xlink:href="#p" />
<use x="56" y="16" xlink:href="#p" />
<use x="56" y="32" xlink:href="#p" />
<use x="56" y="44" xlink:href="#p" />
<use x="56" y="56" xlink:href="#p" />
<use x="56" y="60" xlink:href="#p" />
<use x="56" y="64" xlink:href="#p" />
<use x="56" y="68" xlink:href="#p" />
<use x="56" y="72" xlink:href="#p" />
<use x="56" y="80" xlink:href="#p" />
<use x="56" y="84" xlink:href="#p" />
<use x="56" y="92" xlink:href="#p" />
<use x="56" y="108" xlink:href="#p" />
<use x="56" y="116" xlink:href="#p" />
<use x="56" y="120" xlink:href="#p" />
<use x="60" y="8" xlink:href="#p" />
<use x="60" y="12" xlink:href="#p" />
<use x="60" y="20" xlink:href="#p" />
<use x="60" y="24" xlink:href="#p" />
<use x="60" y="28" xlink:href="#p" />
<use x="60" y="44" xlink:href="#p" />
<use x="60" y="48" xlink:href="#p" />
<use x="60" y="52" xlink:href="#p" />
<use x="60" y="56" xlink:href="#p" />
<use x="60" y="60" xlink:href="#p" />
<use x="60" y="68" xlink:href="#p" />
<use x="60" y="88" xlink:href="#p" />
<use x="60" y="92" xlink:href="#p" />
<use x="60" y="96" xlink:href="#p" />
<use x="60" y="100" xlink:href="#p" />
<use x="60" y="104" xlink:href="#p" />
<use x="60" y="116" xlink:href="#p" />
<use x="64" y="8" xlink:href="#p" />
<use x="64" y="12" xlink:href="#p" />
<use x="64" y="16" xlink:href="#p" />
<use x="64" y="20" xlink:href="#p" />
<use x="64" y="32" xlink:href="#p" />
<use x="64" y="40" xlink:href="#p" />
<use x="64" y="56" xlink:href="#p" />
<use x="64" y="64" xlink:href="#p" />
<use x="64" y="68" xlink:href="#p" />
<use x="64" y="76" xlink:href="#p" />
<use x="64" y="88" xlink:href="#p" />
<use x="64" y="96" xlink:href="#p" />
<use x="64" y="108" xlink:href="#p" />
<use x="64" y="112" xlink:href="#p" />
<use x="68" y="12" xlink:href="#p" />
<use x="68" y="28" xlink:href="#p" />
<use x="68" y="36" xlink:href="#p" />
<use x="68" y="44" xlink:href="#p" />
<use x="68" y="60" xlink:href="#p" />
<use x="68" y="68" xlink:href="#p" />
<use x="68" y="72" xlink:href="#p" />
<use x="68" y="84" xlink:href="#p" />
<use x="68" y="100" xlink:href="#p" />
<use x="68" y="104" xlink:href="#p" />
<use x="68" y="116" xlink:href="#p" />
<use x="72" y="24" xlink:href="#p" />
<use x="72" y="28" xlink:href="#p" />
<use x="72" y="32" xlink:href="#p" />
<use x="72" y="40" xlink:href="#p" />
<use x="72" y="44" xlink:href="#p" />
<use x="72" y="64" xlink:href="#p" />
<use x="72" y="72" xlink:href="#p" />
<use x="72" y="76" xlink:href="#p" />
<use x="72" y="88" xlink:href="#p" />
<use x="72" y="92" xlink:href="#p" />
<use x="72" y="100" xlink:href="#p" />
<use x="72" y="104" xlink:href="#p" />
<use x="72" y="112" xlink:href="#p" />
<use x="72" y="120" xlink:href="#p" />
<use x="76" y="16" xlink:href="#p" />
<use x="76" y="36" xlink:href="#p" />
<use x="76" y="48" xlink:href="#p" />
<use x="76" y="56" xlink:href="#p" />
<use x="76" y="60" xlink:href="#p" />
<use x="76" y="68" xlink:href="#p" />
<use x="76" y="72" xlink:href="#p" />
<use x="76" y="76" xlink:href="#p" />
<use x="76" y="80" xlink:href="#p" />
<use x="76" y="84" xlink:href="#p" />
<use x="76" y="104" xlink:href="#p" />
<use x="76" y="116" xlink:href="#p" />
<use x="76" y="120" xlink:href="#p" />
<use x="80" y="8" xlink:href="#p" />
<use x="80" y="16" xlink:href="#p" />
<use x="80" y="20" xlink:href="#p" />
<use x="80" y="24" xlink:href="#p" />
<use x="80" y="32" xlink:href="#p" />
<use x="80" y="36" xlink:href="#p" />
<use x="80" y="40" xlink:href="#p" />
<use x="80" y="64" xlink:href="#p" />
<use x="80" y="68" xlink:href="#p" />
<use x="80" y="84" xlink:href="#p" />
<use x="80" y="100" xlink:href="#p" />
<use x="80" y="104" xlink:href="#p" />
<use x="80" y="116" xlink:href="#p" />
<use x="84" y="8" xlink:href="#p" />
<use x="84" y="28" xlink:href="#p" />
<use x="84" y="48" xlink:href="#p" />
<use x="84" y="52" xlink:href="#p" />
<use x="84" y="56" xlink:href="#p" />
<use x="84" y="60" xlink:href="#p" />
<use x="84" y="68" xlink:href="#p" />
<use x="84" y="92" xlink:href="#p" />
<use x="84" y="108" xlink:href="#p" />
<use x="84" y="112" xlink:href="#p" />
<use x="84" y="116" xlink:href="#p" />
<use x="88" y="12" xlink:href="#p" />
<use x="88" y="16" xlink:href="#p" />
<use x="88" y="32" xlink:href="#p" />
<use x="88" y="44" xlink:href="#p" />
<use x="88" y="56" xlink:href="#p" />
<use x="88" y="60" xlink:href="#p" />
<use x="88" y="64" xlink:href="#p" />
<use x="88" y="68" xlink:href="#p" />
<use x="88" y="72" xlink:href="#p" />
<use x="88" y="76" xlink:href="#p" />
<use x="88" y="80" xlink:href="#p" />
<use x="88" y="84" xlink:href="#p" />
<use x="88" y="88" xlink:href="#p" />
<use x="88" y="92" xlink:href="#p" />
<use x="88" y="96" xlink:href="#p" />
<use x="88" y="100" xlink:href="#p" />
<use x="88" y="104" xlink:href="#p" />
<use x="88" y="116" xlink:href="#p" />
<use x="88" y="120" xlink:href="#p" />
<use x="92" y="44" xlink:href="#p" />
<use x="92" y="56" xlink:href="#p" />
<use x="92" y="60" xlink:href="#p" />
<use x="92" y="64" xlink:href="#p" />
<use x="92" y="68" xlink:href="#p" />
<use x="92" y="76" xlink:href="#p" />
<use x="92" y="80" xlink:href="#p" />
<use x="92" y="84" xlink:href="#p" />
<use x="92" y="88" xlink:href="#p" />
<use x="92" y="104" xlink:href="#p" />
<use x="92" y="112" xlink:href="#p" />
<use x="92" y="116" xlink:href="#p" />
<use x="96" y="8" xlink:href="#p" />
<use x="96" y="12" xlink:href="#p" />
<use x="96" y="16" xlink:href="#p" />
<use x="96" y="20" xlink:href="#p" />
<use x="96" y="24" xlink:href="#p" />
<use x="96" y="28" xlink:href="#p" />
<use x="96" y="32" xlink:href="#p" />
<use x="96" y="40" xlink:href="#p" />
<use x="96" y="44" xlink:href="#p" />
<use x="96" y="48" xlink:href="#p" />
<use x="96" y="56" xlink:href="#p" />
<use x="96" y="64" xlink:href="#p" />
<use x="96" y="76" xlink:href="#p" />
<use x="96" y="88" xlink:href="#p" />
<use x="96" y="96" xlink:href="#p" />
<use x="96" y="104" xlink:href="#p" />
<use x="96" y="108" xlink:href="#p" />
<use x="96" y="120" xlink:href="#p" />
<use x="100" y="8" xlink:href="#p" />
<use x="100" y="32" xlink:href="#p" />
<use x="100" y="40" xlink:href="#p" />
<use x="100" y="48" xlink:href="#p" />
<use x="100" y="52" xlink:href="#p" />
<use x="100" y="64" xlink:href="#p" />
<use x="100" y="68" xlink:href="#p" />
<use x="100" y="72" xlink:href="#p" />
<use x="100" y="76" xlink:href="#p" />
<use x="100" y="88" xlink:href="#p" />
<use x="100" y="104" xlink:href="#p" />
<use x="100" y="108" xlink:href="#p" />
<use x="100" y="116" xlink:href="#p" />
<use x="100" y="120" xlink:href="#p" />
<use x="104" y="8" xlink:href="#p" />
<use x="104" y="16" xlink:href="#p" />
<use x="104" y="20" xlink:href="#p" />
<use x="104" y="24" xlink:href="#p" />
<use x="104" y="32" xlink:href="#p" />
<use x="104" y="40" xlink:href="#p" />
<use x="104" y="52" xlink:href="#p" />
<use x="104" y="80" xlink:href="#p" />
<use x="104" y="88" xlink:href="#p" />
<use x="104" y="92" xlink:href="#p" />
<use x="104" y="96" xlink:href="#p" />
<use x="104" y="100" xlink:href="#p" />
<use x="104" y="104" xlink:href="#p" />
<use x="104" y="108" xlink:href="#p" />
<use x="104" y="112" xlink:href="#p" />
<use x="104" y="116" xlink:href="#p" />
<use x="108" y="8" xlink:href="#p" />
<use x="108" y="16" xlink:href="#p" />
<use x="108" y="20" xlink:href="#p" />
<use x="108" y="24" xlink:href="#p" />
<use x="108" y="32" xlink:href="#p" />
<use x="108" y="44" xlink:href="#p" />
<use x="108" y="48" xlink:href="#p" />
<use x="108" y="52" xlink:href="#p" />
<use x="108" y="56" xlink:href="#p" />
<use x="108" y="68" xlink:href="#p" />
<use x="108" y="72" xlink:href="#p" />
<use x="108" y="80" xlink:href="#p" />
<use x="108" y="112" xlink:href="#p" />
<use x="108" y="120" xlink:href="#p" />
<use x="112" y="8" xlink:href="#p" />
<use x="112" y="16" xlink:href="#p" />
<use x="112" y="20" xlink:href="#p" />
<use x="112" y="24" xlink:href="#p" />
<use x="112" y="32" xlink:href="#p" />
<use x="112" y="40" xlink:href="#p" />
<use x="112" y="48" xlink:href="#p" />
<use x="112" y="52" xlink:href="#p" />
<use x="112" y="60" xlink:href="#p" />
<use x="112" y="64" xlink:href="#p" />
<use x="112" y="88" xlink:href="#p" />
<use x="112" y="92" xlink:href="#p" />
<use x="112" y="100" xlink:href="#p" />
<use x="116" y="8" xlink:href="#p" />
<use x="116" y="32" xlink:href="#p" />
<use x="116" y="40" xlink:href="#p" />
<use x="116" y="48" xlink:href="#p" />
<use x="116" y="52" xlink:href="#p" />
<use x="116" y="56" xlink:href="#p" />
<use x="116" y="64" xlink:href="#p" />
<use x="116" y="68" xlink:href="#p" />
<use x="116" y="72" xlink:href="#p" />
<use x="116" y="80" xlink:href="#p" />
<use x="116" y="84" xlink:href="#p" />
<use x="116" y="92" xlink:href="#p" />
<use x="116" y="96" xlink:href="#p" />
<use x="116" y="100" xlink:href="#p" />
<use x="116" y="116" xlink:href="#p" />
<use x="116" y="120" xlink:href="#p" />
<use x="120" y="8" xlink:href="#p" />
<use x="120" y="12" xlink:href="#p" />
<use x="120" y="16" xlink:href="#p" />
<use x="120" y="20" xlink:href="#p" />
<use x="120" y="24" xlink:href="#p" />
<use x="120" y="28" xlink:href="#p" />
<use x="120" y="32" xlink:href="#p" />
<use x="120" y="44" xlink:href="#p" />
<use x="120" y="56" xlink:href="#p" />
<use x="120" y="64" xlink:href="#p" />
<use x="120" y="76" xlink:href="#p" />
<use x="120" y="80" xlink:href="#p" />
<use x="120" y="84" xlink:href="#p" />
<use x="120" y="92" xlink:href="#p" />
<use x="120" y="100" xlink:href="#p" />
<use x="120" y="104" xlink:href="#p" />
<use x="120" y="112" xlink:href="#p" />
</g>

</svg>